<svg width="185" height="48" viewBox="0 0 185 48" fill="none" xmlns="http://www.w3.org/2000/svg">
<path d="M95.1668 22.8316C94.8209 23.0196 94.5328 23.2982 94.3336 23.6377C94.0475 24.1515 93.9095 24.7346 93.9351 25.3222C93.902 25.7065 93.9511 26.0934 94.0791 26.4573C94.2072 26.8211 94.4112 27.1535 94.6777 27.4324C95.0109 27.7563 95.4231 27.9873 95.8732 28.1026C96.3657 28.2396 96.8745 28.3096 97.3857 28.3109C98.0083 28.3196 98.6256 28.1961 99.197 27.9486C99.7417 27.7215 100.181 27.298 100.429 26.7622L95.1668 22.8316ZM105.301 30.4392L103.49 29.0807C103.156 29.5368 102.749 29.9345 102.285 30.258C101.824 30.5977 101.318 30.872 100.782 31.0731C99.6653 31.4685 98.4886 31.6676 97.3041 31.6618C95.3693 31.7434 93.4686 31.1334 91.9426 29.9411C91.2939 29.3806 90.78 28.681 90.4392 27.8943C90.0185 26.9198 89.8462 25.8561 89.9379 24.7986C90.0295 23.7411 90.3823 22.7229 90.9645 21.8354C91.2876 21.3159 91.6982 20.8563 92.1781 20.4769C91.5899 19.9042 91.1111 19.229 90.7653 18.4844C90.4819 17.8778 90.3365 17.2159 90.3396 16.5463C90.3413 15.4884 90.6565 14.4547 91.2453 13.5758C91.8638 12.6554 92.7394 11.9373 93.763 11.5109C94.3005 11.2809 94.8627 11.1138 95.4385 11.0127C96.0365 10.9068 96.6425 10.8523 97.2498 10.8497C98.7868 10.7951 100.307 11.1884 101.624 11.9818C102.464 12.4744 103.139 13.2058 103.562 14.0829L100.202 15.4414C99.9663 15.014 99.5784 14.6907 99.1154 14.5358C98.5798 14.335 98.012 14.2337 97.44 14.2369C96.7592 14.2185 96.0835 14.358 95.4656 14.6445C95.1224 14.8198 94.8377 15.0913 94.6463 15.4258C94.4549 15.7604 94.3651 16.1435 94.3879 16.5282C94.3969 17.1975 94.6479 17.8409 95.0943 18.3396C95.2557 18.5372 95.4413 18.7137 95.6468 18.8648L100.764 22.6505L104.758 25.6392L107.683 27.8218L105.301 30.4392ZM183.931 31.2452H179.683V19.3177L173.244 31.218H171.768L165.328 19.3539V31.218H161.09V11.2935H165.328L172.51 24.5161L179.683 11.2935H183.921L183.931 31.2452ZM148.184 28.1207C149.149 28.1282 150.106 27.9594 151.01 27.6226C151.836 27.3168 152.57 26.8019 153.138 26.1282C154.192 24.7405 154.719 23.0231 154.623 21.283C154.725 19.5448 154.198 17.8279 153.138 16.4467C152.594 15.7874 151.889 15.2791 151.091 14.9705C150.247 14.624 149.342 14.4485 148.429 14.4543C147.458 14.4431 146.494 14.612 145.585 14.9524C144.758 15.2481 144.028 15.7649 143.475 16.4467C142.416 17.8298 141.88 19.5429 141.962 21.283C141.886 23.0251 142.421 24.7391 143.475 26.1282C144.007 26.7921 144.708 27.3017 145.503 27.6044C146.356 27.9408 147.267 28.107 148.184 28.0935V28.1207ZM148.302 31.6618C146.734 31.6727 145.179 31.3838 143.719 30.8105C142.355 30.2993 141.131 29.4704 140.151 28.3924C139.287 27.4595 138.624 26.359 138.204 25.1592C137.771 23.9129 137.554 22.6021 137.561 21.283C137.555 19.9609 137.773 18.6475 138.204 17.3977C138.624 16.1924 139.287 15.0859 140.151 14.1463C141.118 13.0612 142.337 12.2308 143.701 11.7282C145.172 11.1775 146.731 10.9012 148.302 10.9131C149.871 10.9001 151.429 11.1828 152.894 11.7463C154.254 12.2613 155.478 13.0825 156.471 14.1463C157.328 15.0832 157.981 16.1871 158.391 17.3886C159.272 19.9162 159.272 22.6678 158.391 25.1954C157.985 26.385 157.33 27.4747 156.471 28.3924C155.468 29.4741 154.228 30.3081 152.848 30.8286C151.396 31.3779 149.854 31.6513 148.302 31.6346V31.6618ZM131.158 14.8437H123.242L122.137 23.3841C122.031 24.2734 121.861 25.1541 121.63 26.0195C121.454 26.6402 121.145 27.2151 120.725 27.7041H131.158V14.8437ZM136.447 27.7041V33.7358H132.507V31.2452H119.212V33.7358H115.3V27.7222C116.839 27.7222 117.814 26.1463 118.225 22.9946L119.728 11.3479H135.07V27.7222L136.447 27.7041ZM76.6732 19.7343C77.092 19.2602 77.3322 18.6548 77.3524 18.0226C77.3661 17.641 77.3026 17.2607 77.1656 16.9043C77.0287 16.5479 76.8211 16.2228 76.5555 15.9486C76.2288 15.6244 75.845 15.3634 75.4234 15.1788C75.0262 14.9818 74.5897 14.8766 74.1464 14.8709H68.2415V20.9569H74.1464C74.6287 20.9361 75.1016 20.8169 75.5361 20.6066C75.9707 20.3964 76.3576 20.0995 76.6732 19.7343ZM81.6 18.0226C81.5955 18.7002 81.4602 19.3706 81.2015 19.9969C80.927 20.6492 80.5611 21.2591 80.1147 21.8082C79.4226 22.6424 78.5448 23.303 77.5517 23.7373C76.491 24.2193 75.3387 24.4664 74.1736 24.4618H68.2415V31.2362H64.0483V11.3116H74.1736C74.933 11.3091 75.6889 11.4128 76.4196 11.6195C77.1519 11.8091 77.8491 12.1149 78.4845 12.5252C79.1021 12.9176 79.6526 13.4069 80.1147 13.9743C80.5869 14.537 80.9577 15.1774 81.2106 15.8671C81.4586 16.5492 81.5843 17.2697 81.5819 17.9954L81.6 18.0226ZM51.1426 28.1207C52.11 28.1291 53.0708 27.9603 53.9774 27.6226C54.8027 27.3142 55.5354 26.7998 56.1057 26.1282C57.1574 24.7396 57.6807 23.0221 57.5819 21.283C57.6866 19.5459 57.1625 17.8292 56.1057 16.4467C55.5611 15.7874 54.8563 15.2791 54.0589 14.9705C53.2142 14.624 52.3092 14.4485 51.3962 14.4543C50.4228 14.4439 49.4557 14.6127 48.5434 14.9524C47.7178 15.2505 46.9886 15.767 46.4332 16.4467C45.3767 17.8307 44.8441 19.5439 44.9298 21.283C44.8505 23.024 45.3823 24.7379 46.4332 26.1282C46.9715 26.7902 47.6742 27.2993 48.4709 27.6044C49.3183 27.9387 50.2227 28.1048 51.1336 28.0935L51.1426 28.1207ZM51.2694 31.6618C49.7016 31.6727 48.1461 31.3838 46.6868 30.8105C45.3044 30.3035 44.0626 29.4746 43.0641 28.3924C42.2062 27.4567 41.5469 26.3568 41.126 25.1592C40.6936 23.9129 40.4761 22.6021 40.483 21.283C40.4777 19.9609 40.6951 18.6475 41.126 17.3977C41.5468 16.1945 42.206 15.0887 43.0641 14.1463C44.0347 13.0611 45.2569 12.2308 46.6234 11.7282C48.094 11.1767 49.6535 10.9004 51.2241 10.9131C52.7934 10.901 54.3509 11.1836 55.8158 11.7463C57.1752 12.259 58.3968 13.0806 59.3842 14.1463C60.2444 15.0805 60.8985 16.1852 61.3041 17.3886C62.1978 19.9141 62.1978 22.6699 61.3041 25.1954C60.9013 26.3867 60.2465 27.4771 59.3842 28.3924C58.3823 29.4749 57.142 30.309 55.7615 30.8286C54.3234 31.3716 52.7975 31.6449 51.2604 31.6346L51.2694 31.6618ZM35.5019 25.0776C35.4972 24.7644 35.4262 24.4558 35.2936 24.172C35.1492 23.861 34.9498 23.5788 34.7049 23.3388C34.444 23.0989 34.1354 22.9168 33.7992 22.8045C33.4698 22.6937 33.1234 22.6415 32.7758 22.6505H27.7223V27.7222H32.7758C33.4378 27.7172 34.0777 27.4837 34.5872 27.061C34.8908 26.8253 35.132 26.5188 35.2899 26.1683C35.4478 25.8179 35.5174 25.4341 35.4928 25.0505L35.5019 25.0776ZM27.7494 14.8437V19.0731H32.5494C32.8117 19.0246 33.0632 18.9295 33.2921 18.7924C33.5319 18.666 33.7492 18.5007 33.9351 18.3033C34.2654 17.9815 34.4543 17.5418 34.4604 17.0807C34.4705 16.798 34.4209 16.5164 34.3148 16.2542C34.2087 15.992 34.0484 15.7552 33.8445 15.5592C33.6441 15.3483 33.4041 15.179 33.1381 15.061C32.8799 14.9279 32.5953 14.8537 32.3049 14.8437H27.7494ZM38.4 21.5365C39.2652 22.544 39.7351 23.8313 39.7223 25.1592C39.7161 26.4837 39.2485 27.7647 38.4 28.7818C37.5018 29.8414 36.2957 30.5948 34.9494 30.9373C34.2673 31.1253 33.5647 31.2287 32.8574 31.2452H23.4928V11.3207H32.3321C32.9767 11.3153 33.6183 11.41 34.234 11.6014C34.877 11.7536 35.4895 12.0139 36.0453 12.3712C36.5701 12.7017 37.033 13.1217 37.4128 13.612C38.2753 14.5654 38.7389 15.8135 38.7079 17.0988C38.7054 17.6737 38.5916 18.2426 38.3728 18.7743C38.1483 19.3384 37.823 19.8571 37.4128 20.3048L37.2951 20.4497C37.686 20.7755 38.0523 21.1296 38.3909 21.5094L38.4 21.5365ZM15.8672 14.8437H7.9517L6.84679 23.3841C6.74 24.2734 6.57053 25.1541 6.33962 26.0195C6.16376 26.6402 5.8547 27.2151 5.43396 27.7041H15.8672V14.8437ZM21.1562 27.7041V33.7358H17.2166V31.2452H3.91246V33.7358H0V27.7222C1.53962 27.7222 2.51471 26.1463 2.92528 22.9946L4.42868 11.3479H19.7615V27.7222L21.1562 27.7041Z" fill="white"/>
<path d="M153.717 46.2977C154.052 46.298 154.383 46.2366 154.696 46.1165C154.986 46.0116 155.243 45.8301 155.438 45.5912C155.814 45.0928 155.998 44.4753 155.954 43.8524C155.988 43.2669 155.804 42.6896 155.438 42.2312C155.247 42.0011 155.001 41.8234 154.723 41.715C154.437 41.5919 154.129 41.5272 153.817 41.5248C153.48 41.5246 153.145 41.586 152.83 41.706C152.544 41.8197 152.29 41.9997 152.087 42.2312C151.719 42.7126 151.535 43.3105 151.571 43.9158C151.534 44.5184 151.718 45.1138 152.087 45.5912C152.281 45.8242 152.53 46.0048 152.812 46.1165C153.1 46.232 153.407 46.2934 153.717 46.2977ZM153.717 46.9226C153.275 46.9257 152.836 46.8458 152.422 46.6871C152.043 46.5406 151.706 46.3008 151.444 45.9897C150.951 45.3934 150.699 44.6342 150.738 43.8614C150.71 43.1177 150.962 42.3905 151.444 41.8237C151.711 41.5258 152.042 41.2933 152.413 41.1445C152.811 40.9858 153.235 40.9058 153.663 40.909C154.114 40.9066 154.563 40.9864 154.985 41.1445C155.375 41.2829 155.723 41.5163 156 41.8237C156.238 42.1012 156.417 42.4249 156.525 42.7746C156.635 43.1455 156.696 43.5291 156.706 43.9158C156.722 44.6686 156.471 45.4028 156 45.9897C155.732 46.2992 155.393 46.5386 155.013 46.6871C154.608 46.8425 154.178 46.9223 153.745 46.9226H153.717ZM149.443 45.8358C149.541 45.7517 149.62 45.6476 149.675 45.5305C149.729 45.4133 149.758 45.2858 149.76 45.1565C149.764 44.9035 149.674 44.658 149.506 44.4682C149.393 44.337 149.25 44.2346 149.09 44.1694C148.926 44.0988 148.751 44.0619 148.573 44.0607H146.662V46.1528H148.265C148.505 46.1562 148.744 46.141 148.981 46.1075C149.159 46.0656 149.32 45.9708 149.443 45.8358ZM146.662 41.6244V43.4358H148.41C148.57 43.4343 148.728 43.3972 148.872 43.3271C149.016 43.2639 149.143 43.1677 149.243 43.0463C149.377 42.8858 149.45 42.6843 149.452 42.4758C149.45 42.3662 149.426 42.2581 149.379 42.1588C149.329 42.063 149.261 41.9771 149.18 41.9052C149.084 41.8043 148.967 41.7268 148.836 41.6788C148.699 41.6323 148.555 41.6108 148.41 41.6154L146.662 41.6244ZM150.14 44.1422C150.258 44.2751 150.35 44.4286 150.412 44.595C150.472 44.7509 150.503 44.9168 150.502 45.0841C150.502 45.2785 150.468 45.4714 150.403 45.6546C150.336 45.8356 150.234 46.0018 150.104 46.1437C149.838 46.4158 149.503 46.61 149.135 46.7052C148.851 46.7587 148.563 46.783 148.274 46.7777H145.929V41.0086H148.646C148.753 41.0156 148.859 41.0338 148.963 41.0629C149.312 41.1288 149.63 41.3069 149.868 41.5701C150.115 41.8335 150.257 42.1783 150.267 42.5391C150.265 42.6953 150.231 42.8495 150.167 42.992C150.108 43.142 150.022 43.2801 149.914 43.3995C149.837 43.5033 149.746 43.5949 149.642 43.6712C149.842 43.795 150.013 43.9621 150.14 44.1603V44.1422ZM145.521 41.6516H143.311V46.7777H142.587V41.6697H140.368V41.0267H145.521V41.6516ZM140.268 45.0659C140.154 45.4303 139.959 45.764 139.697 46.0418C139.435 46.3195 139.113 46.534 138.756 46.669C138.349 46.8261 137.916 46.906 137.479 46.9044C137.039 46.9084 136.603 46.8285 136.193 46.669C135.814 46.5202 135.476 46.2844 135.206 45.9807C134.723 45.4135 134.468 44.6873 134.49 43.9429C134.456 43.1665 134.711 42.405 135.206 41.8056C135.474 41.4989 135.813 41.2626 136.193 41.1173C136.603 40.9578 137.039 40.8778 137.479 40.8818C137.922 40.878 138.362 40.961 138.774 41.1263C139.152 41.2663 139.489 41.5 139.752 41.8056C140.017 42.1115 140.21 42.4739 140.314 42.8652L139.562 42.9739C139.499 42.6807 139.361 42.4086 139.163 42.1835C138.965 41.9584 138.713 41.7878 138.43 41.6879C138.115 41.5679 137.78 41.5065 137.443 41.5067C137.132 41.509 136.825 41.5705 136.537 41.6879C136.259 41.802 136.011 41.9786 135.813 42.2041C135.477 42.7033 135.297 43.2914 135.297 43.8931C135.297 44.4949 135.477 45.083 135.813 45.5822C136.015 45.8155 136.274 45.9933 136.564 46.0984C136.876 46.2185 137.208 46.2799 137.542 46.2795C137.853 46.2755 138.16 46.2141 138.448 46.0984C138.731 45.9879 138.982 45.8108 139.182 45.5822C139.346 45.3753 139.469 45.1385 139.544 44.8848L140.268 45.0659ZM133.512 44.9482C133.509 44.6799 133.402 44.4234 133.213 44.2328C133.09 44.0945 132.938 43.9835 132.77 43.9067C132.602 43.8299 132.42 43.7897 132.235 43.789H130.252V46.1528H132.235C132.403 46.1546 132.57 46.1206 132.724 46.0531C132.876 45.9928 133.014 45.9036 133.132 45.7905C133.256 45.6855 133.352 45.5518 133.413 45.401C133.479 45.253 133.513 45.0924 133.512 44.9301V44.9482ZM133.784 43.8252C133.928 43.9875 134.047 44.1707 134.137 44.3686C134.216 44.5611 134.256 44.7673 134.255 44.9754C134.24 45.431 134.048 45.8629 133.72 46.1799C133.498 46.4159 133.217 46.5879 132.905 46.678C132.688 46.7458 132.462 46.7794 132.235 46.7777H129.518V41.0086H130.243V43.1731H132.226C132.522 43.1724 132.814 43.2309 133.086 43.3452C133.352 43.4589 133.59 43.6289 133.784 43.8433V43.8252ZM128.495 46.7777H127.77V41.6335H125.162L124.736 44.8848C124.695 45.4034 124.52 45.9025 124.229 46.3339C124.076 46.5064 123.883 46.6375 123.666 46.7151C123.449 46.7926 123.216 46.8142 122.988 46.7777V46.1799C123.197 46.1905 123.404 46.1333 123.577 46.0169C123.729 45.8984 123.842 45.7377 123.903 45.555C123.979 45.2973 124.033 45.0337 124.066 44.7671L124.564 41.0086H128.495V46.7777ZM119.438 41.6516V43.5625H122.155V44.2237H119.438V46.1346H122.708V46.7777H118.714V41.0086H122.708V41.6516H119.438ZM118.306 41.6516H116.096V46.7777H115.372V41.6697H113.144V41.0267H118.306V41.6516ZM112.736 41.0086V46.7777H112.012V42.2131L108.643 46.7867H107.991V41.0176H108.724V45.5459L112.093 41.0176L112.736 41.0086ZM104.223 46.2977C104.561 46.2991 104.895 46.2377 105.21 46.1165C105.501 46.0116 105.757 45.8301 105.953 45.5912C106.329 45.0928 106.512 44.4753 106.469 43.8524C106.53 43.2711 106.376 42.6877 106.034 42.2131C105.844 41.983 105.597 41.8053 105.319 41.6969C105.033 41.5737 104.725 41.5091 104.413 41.5067C104.076 41.5065 103.741 41.5679 103.426 41.6879C103.139 41.7993 102.884 41.9797 102.683 42.2131C102.315 42.6945 102.132 43.2924 102.167 43.8976C102.131 44.5002 102.314 45.0957 102.683 45.5731C102.877 45.8061 103.126 45.9867 103.408 46.0984C103.667 46.21 103.942 46.2773 104.223 46.2977ZM104.223 46.9226C103.78 46.9266 103.341 46.8467 102.928 46.6871C102.549 46.5406 102.212 46.3008 101.95 45.9897C101.457 45.3934 101.205 44.6342 101.243 43.8614C101.215 43.1177 101.467 42.3905 101.95 41.8237C102.215 41.5281 102.543 41.2959 102.91 41.1445C103.308 40.9873 103.732 40.9074 104.16 40.909C104.614 40.9059 105.065 40.9857 105.491 41.1445C105.88 41.2829 106.229 41.5163 106.505 41.8237C106.744 42.1012 106.923 42.4249 107.031 42.7746C107.141 43.1455 107.201 43.5291 107.212 43.9158C107.227 44.6686 106.977 45.4028 106.505 45.9897C106.238 46.2992 105.899 46.5386 105.518 46.6871C105.127 46.8356 104.714 46.9152 104.296 46.9226H104.223ZM99.9665 43.5716C100.15 43.378 100.253 43.1226 100.256 42.8561C100.259 42.6975 100.228 42.5402 100.166 42.3943C100.103 42.2476 100.006 42.1175 99.885 42.0139C99.7641 41.9007 99.6227 41.8115 99.4684 41.7512C99.3149 41.6818 99.1478 41.6477 98.9793 41.6516H97.0684V44.0244H99.0518C99.2369 44.0207 99.4194 43.9803 99.5888 43.9057C99.7582 43.8311 99.9112 43.7237 100.039 43.5897L99.9665 43.5716ZM100.474 41.6244C100.638 41.78 100.77 41.9665 100.861 42.1732C100.953 42.38 101.003 42.6028 101.008 42.829C101.005 43.0375 100.962 43.2435 100.881 43.4358C100.798 43.6351 100.682 43.8189 100.537 43.9792C100.341 44.1862 100.103 44.3498 99.8397 44.4592C99.5678 44.5752 99.2749 44.6337 98.9793 44.6312H97.0684V46.7958H96.3438V41.0267H99.0608C99.291 41.0255 99.52 41.0591 99.7401 41.1263C100.048 41.2179 100.326 41.3898 100.546 41.6244H100.474ZM95.8729 41.6244H93.654V46.7505H92.9295V41.6697H90.7106V41.0267H95.8729V41.6244ZM90.611 45.0388C90.497 45.4032 90.3016 45.7369 90.0395 46.0146C89.7775 46.2923 89.4557 46.5068 89.0986 46.6418C88.2728 46.9541 87.3614 46.9541 86.5356 46.6418C86.157 46.4931 85.8189 46.2573 85.5484 45.9535C85.0658 45.3863 84.8108 44.6602 84.8329 43.9158C84.7989 43.1394 85.0538 42.3779 85.5484 41.7784C85.8162 41.4717 86.1552 41.2354 86.5356 41.0901C86.9454 40.9306 87.3819 40.8507 87.8216 40.8546C88.2651 40.8508 88.7051 40.9339 89.1167 41.0992C89.495 41.2391 89.8315 41.4728 90.0948 41.7784C90.3634 42.082 90.5559 42.4453 90.6563 42.838L89.9137 42.9467C89.8417 42.6647 89.7087 42.402 89.5242 42.1769C89.3202 41.9453 89.062 41.7679 88.7725 41.6607C88.4576 41.5395 88.1228 41.4781 87.7854 41.4795C87.4748 41.4827 87.1676 41.5442 86.8797 41.6607C86.6018 41.7748 86.3538 41.9515 86.1552 42.1769C85.8192 42.6761 85.6397 43.2642 85.6397 43.866C85.6397 44.4677 85.8192 45.0558 86.1552 45.555C86.3592 45.7866 86.6175 45.964 86.9069 46.0712C87.219 46.1913 87.5506 46.2527 87.885 46.2524C88.1955 46.2483 88.5025 46.187 88.7906 46.0712C89.0732 45.9607 89.3248 45.7836 89.5242 45.555C89.6884 45.3464 89.8141 45.1103 89.8956 44.8577L90.611 45.0388ZM81.7718 40.9814V46.7505H81.0382V42.2131L77.6782 46.7867H77.0261V41.0176H77.7597V45.5459L81.1288 41.0176L81.7718 40.9814ZM74.5265 41.6244H72.3076V46.7505H71.6193V41.6697H69.4005V41.0267H74.5627L74.5265 41.6244ZM64.7997 44.9301C65.1938 45.1833 65.6456 45.3329 66.1129 45.3648V42.041C65.6458 42.0675 65.1935 42.2141 64.7997 42.4667C64.6132 42.6133 64.4625 42.8004 64.3588 43.0137C64.2552 43.2271 64.2013 43.4612 64.2013 43.6984C64.2013 43.9356 64.2552 44.1697 64.3588 44.3831C64.4625 44.5964 64.6132 44.7835 64.7997 44.9301ZM68.1597 44.9301C68.3575 44.7941 68.5166 44.6091 68.6213 44.3932C68.7261 44.1773 68.773 43.9379 68.7575 43.6984C68.7712 43.4592 68.7236 43.2204 68.6189 43.0047C68.5143 42.7891 68.3562 42.6039 68.1597 42.4667C67.7633 42.2126 67.3076 42.066 66.8375 42.041V45.3648C67.3076 45.3324 67.7621 45.183 68.1597 44.9301ZM68.5944 41.9052C69.0288 42.2111 69.339 42.6627 69.4686 43.1779C69.5982 43.6931 69.5387 44.2377 69.3009 44.7128C69.1368 45.0316 68.8935 45.3029 68.5944 45.5007C68.0625 45.8213 67.4581 46.002 66.8375 46.0259V46.7595H66.1129V46.0259C65.4976 46.0046 64.8983 45.8236 64.3741 45.5007C64.0749 45.3002 63.8293 45.0298 63.6586 44.7128C63.5093 44.3955 63.4318 44.0491 63.4318 43.6984C63.4318 43.3477 63.5093 43.0014 63.6586 42.6841C63.8258 42.3699 64.0686 42.1022 64.365 41.9052C64.8933 41.5814 65.4941 41.3946 66.1129 41.3618V40.9905H66.8375V41.3527C67.4642 41.3933 68.0697 41.5962 68.5944 41.9414V41.9052ZM62.1824 45.0388L60.9144 41.6969L59.6556 45.0388H62.1824ZM62.4269 45.6546H59.4291L59.0035 46.7595H58.2427L60.4344 40.9905H61.4125L63.6042 46.7595H62.8435L62.4269 45.6546ZM57.8986 40.9905V46.7595H51.1695V40.9905H51.8941V46.1165H54.1673V40.9905H54.8918V46.1165H57.1288V40.9905H57.8986ZM49.1952 41.6063H46.5326L46.1612 44.4954C46.1323 45.0991 45.9028 45.6759 45.5092 46.1346H49.1861L49.1952 41.6063ZM50.4088 46.1346V47.4388H49.7114V46.7595H44.9658V47.4388H44.2865V46.1346C44.442 46.1365 44.5953 46.0983 44.7317 46.0238C44.8681 45.9492 44.983 45.8408 45.0654 45.709C45.305 45.3197 45.4478 44.8787 45.482 44.4229L45.9258 40.9905H49.8835V46.1346H50.4088ZM43.716 40.9905V46.7595H42.9914V44.6584H39.5227V46.7958H38.7982V41.0267H39.5227V44.0244H42.9914V41.0539L43.716 40.9905ZM37.0141 45.0388L35.7461 41.6969L34.4873 45.075L37.0141 45.0388ZM37.2586 45.6546H34.2518L33.8352 46.7595H33.0744L35.2661 40.9905H36.2443L38.436 46.7595H37.6752L37.2586 45.6546ZM32.7303 46.7595H32.0148V41.6154H29.4065L28.9718 44.8667C28.9329 45.3845 28.7613 45.8835 28.4737 46.3158C28.3196 46.489 28.1242 46.6205 27.9057 46.6981C27.6873 46.7757 27.4527 46.7968 27.2239 46.7595V46.1618C27.4355 46.1737 27.6453 46.1165 27.8216 45.9988C27.9734 45.8822 28.0844 45.7205 28.1386 45.5369C28.2231 45.2814 28.2778 45.017 28.3016 44.749L28.8088 40.9905H32.676L32.7303 46.7595Z" fill="white"/>
<path d="M153.717 46.2977C154.052 46.298 154.383 46.2366 154.696 46.1165C154.986 46.0116 155.243 45.8301 155.438 45.5912C155.814 45.0928 155.998 44.4753 155.954 43.8524C155.988 43.2669 155.804 42.6896 155.438 42.2312C155.247 42.0011 155.001 41.8234 154.723 41.715C154.437 41.5919 154.129 41.5272 153.817 41.5248C153.48 41.5246 153.145 41.586 152.83 41.706C152.544 41.8197 152.29 41.9997 152.087 42.2312C151.719 42.7126 151.535 43.3105 151.571 43.9158C151.534 44.5184 151.718 45.1138 152.087 45.5912C152.281 45.8242 152.53 46.0048 152.812 46.1165C153.1 46.232 153.407 46.2934 153.717 46.2977ZM153.717 46.9226C153.275 46.9257 152.836 46.8458 152.422 46.6871C152.043 46.5406 151.706 46.3008 151.444 45.9897C150.951 45.3934 150.699 44.6342 150.738 43.8614C150.71 43.1177 150.962 42.3905 151.444 41.8237C151.711 41.5258 152.042 41.2933 152.413 41.1445C152.811 40.9858 153.235 40.9058 153.663 40.909C154.114 40.9066 154.563 40.9864 154.985 41.1445C155.375 41.2829 155.723 41.5163 156 41.8237C156.238 42.1012 156.417 42.4249 156.525 42.7746C156.635 43.1455 156.696 43.5291 156.706 43.9158C156.722 44.6686 156.471 45.4028 156 45.9897C155.732 46.2992 155.393 46.5386 155.013 46.6871C154.608 46.8425 154.178 46.9223 153.745 46.9226H153.717ZM149.443 45.8358C149.541 45.7517 149.62 45.6476 149.675 45.5305C149.729 45.4133 149.758 45.2858 149.76 45.1565C149.764 44.9035 149.674 44.658 149.506 44.4682C149.393 44.337 149.25 44.2346 149.09 44.1694C148.926 44.0988 148.751 44.0619 148.573 44.0607H146.662V46.1528H148.265C148.505 46.1562 148.744 46.141 148.981 46.1075C149.159 46.0656 149.32 45.9708 149.443 45.8358ZM146.662 41.6244V43.4358H148.41C148.57 43.4343 148.728 43.3972 148.872 43.3271C149.016 43.2639 149.143 43.1677 149.243 43.0463C149.377 42.8858 149.45 42.6843 149.452 42.4758C149.45 42.3662 149.426 42.2581 149.379 42.1588C149.329 42.063 149.261 41.9771 149.18 41.9052C149.084 41.8043 148.967 41.7268 148.836 41.6788C148.699 41.6323 148.555 41.6108 148.41 41.6154L146.662 41.6244ZM150.14 44.1422C150.258 44.2751 150.35 44.4286 150.412 44.595C150.472 44.7509 150.503 44.9168 150.502 45.0841C150.502 45.2785 150.468 45.4714 150.403 45.6546C150.336 45.8356 150.234 46.0018 150.104 46.1437C149.838 46.4158 149.503 46.61 149.135 46.7052C148.851 46.7587 148.563 46.783 148.274 46.7777H145.929V41.0086H148.646C148.753 41.0156 148.859 41.0338 148.963 41.0629C149.312 41.1288 149.63 41.3069 149.868 41.5701C150.115 41.8335 150.257 42.1783 150.267 42.5391C150.265 42.6953 150.231 42.8495 150.167 42.992C150.108 43.142 150.022 43.2801 149.914 43.3995C149.837 43.5033 149.746 43.5949 149.642 43.6712C149.842 43.795 150.013 43.9621 150.14 44.1603V44.1422ZM145.521 41.6516H143.311V46.7777H142.587V41.6697H140.368V41.0267H145.521V41.6516ZM140.268 45.0659C140.154 45.4303 139.959 45.764 139.697 46.0418C139.435 46.3195 139.113 46.534 138.756 46.669C138.349 46.8261 137.916 46.906 137.479 46.9044C137.039 46.9084 136.603 46.8285 136.193 46.669C135.814 46.5202 135.476 46.2844 135.206 45.9807C134.723 45.4135 134.468 44.6873 134.49 43.9429C134.456 43.1665 134.711 42.405 135.206 41.8056C135.474 41.4989 135.813 41.2626 136.193 41.1173C136.603 40.9578 137.039 40.8778 137.479 40.8818C137.922 40.878 138.362 40.961 138.774 41.1263C139.152 41.2663 139.489 41.5 139.752 41.8056C140.017 42.1115 140.21 42.4739 140.314 42.8652L139.562 42.9739C139.499 42.6807 139.361 42.4086 139.163 42.1835C138.965 41.9584 138.713 41.7878 138.43 41.6879C138.115 41.5679 137.78 41.5065 137.443 41.5067C137.132 41.509 136.825 41.5705 136.537 41.6879C136.259 41.802 136.011 41.9786 135.813 42.2041C135.477 42.7033 135.297 43.2914 135.297 43.8931C135.297 44.4949 135.477 45.083 135.813 45.5822C136.015 45.8155 136.274 45.9933 136.564 46.0984C136.876 46.2185 137.208 46.2799 137.542 46.2795C137.853 46.2755 138.16 46.2141 138.448 46.0984C138.731 45.9879 138.982 45.8108 139.182 45.5822C139.346 45.3753 139.469 45.1385 139.544 44.8848L140.268 45.0659ZM133.512 44.9482C133.509 44.6799 133.402 44.4234 133.213 44.2328C133.09 44.0945 132.938 43.9835 132.77 43.9067C132.602 43.8299 132.42 43.7897 132.235 43.789H130.252V46.1528H132.235C132.403 46.1546 132.57 46.1206 132.724 46.0531C132.876 45.9928 133.014 45.9036 133.132 45.7905C133.256 45.6855 133.352 45.5518 133.413 45.401C133.479 45.253 133.513 45.0924 133.512 44.9301V44.9482ZM133.784 43.8252C133.928 43.9875 134.047 44.1707 134.137 44.3686C134.216 44.5611 134.256 44.7673 134.255 44.9754C134.24 45.431 134.048 45.8629 133.72 46.1799C133.498 46.4159 133.217 46.5879 132.905 46.678C132.688 46.7458 132.462 46.7794 132.235 46.7777H129.518V41.0086H130.243V43.1731H132.226C132.522 43.1724 132.814 43.2309 133.086 43.3452C133.352 43.4589 133.59 43.6289 133.784 43.8433V43.8252ZM128.495 46.7777H127.77V41.6335H125.162L124.736 44.8848C124.695 45.4034 124.52 45.9025 124.229 46.3339C124.076 46.5064 123.883 46.6375 123.666 46.7151C123.449 46.7926 123.216 46.8142 122.988 46.7777V46.1799C123.197 46.1905 123.404 46.1333 123.577 46.0169C123.729 45.8984 123.842 45.7377 123.903 45.555C123.979 45.2973 124.033 45.0337 124.066 44.7671L124.564 41.0086H128.495V46.7777ZM119.438 41.6516V43.5625H122.155V44.2237H119.438V46.1346H122.708V46.7777H118.714V41.0086H122.708V41.6516H119.438ZM118.306 41.6516H116.096V46.7777H115.372V41.6697H113.144V41.0267H118.306V41.6516ZM112.736 41.0086V46.7777H112.012V42.2131L108.643 46.7867H107.991V41.0176H108.724V45.5459L112.093 41.0176L112.736 41.0086ZM104.223 46.2977C104.561 46.2991 104.895 46.2377 105.21 46.1165C105.501 46.0116 105.757 45.8301 105.953 45.5912C106.329 45.0928 106.512 44.4753 106.469 43.8524C106.53 43.2711 106.376 42.6877 106.034 42.2131C105.844 41.983 105.597 41.8053 105.319 41.6969C105.033 41.5737 104.725 41.5091 104.413 41.5067C104.076 41.5065 103.741 41.5679 103.426 41.6879C103.139 41.7993 102.884 41.9797 102.683 42.2131C102.315 42.6945 102.132 43.2924 102.167 43.8976C102.131 44.5002 102.314 45.0957 102.683 45.5731C102.877 45.8061 103.126 45.9867 103.408 46.0984C103.667 46.21 103.942 46.2773 104.223 46.2977ZM104.223 46.9226C103.78 46.9266 103.341 46.8467 102.928 46.6871C102.549 46.5406 102.212 46.3008 101.95 45.9897C101.457 45.3934 101.205 44.6342 101.243 43.8614C101.215 43.1177 101.467 42.3905 101.95 41.8237C102.215 41.5281 102.543 41.2959 102.91 41.1445C103.308 40.9873 103.732 40.9074 104.16 40.909C104.614 40.9059 105.065 40.9857 105.491 41.1445C105.88 41.2829 106.229 41.5163 106.505 41.8237C106.744 42.1012 106.923 42.4249 107.031 42.7746C107.141 43.1455 107.201 43.5291 107.212 43.9158C107.227 44.6686 106.977 45.4028 106.505 45.9897C106.238 46.2992 105.899 46.5386 105.518 46.6871C105.127 46.8356 104.714 46.9152 104.296 46.9226H104.223ZM99.9665 43.5716C100.15 43.378 100.253 43.1226 100.256 42.8561C100.259 42.6975 100.228 42.5402 100.166 42.3943C100.103 42.2476 100.006 42.1175 99.885 42.0139C99.7641 41.9007 99.6227 41.8115 99.4684 41.7512C99.3149 41.6818 99.1478 41.6477 98.9793 41.6516H97.0684V44.0244H99.0518C99.2369 44.0207 99.4194 43.9803 99.5888 43.9057C99.7582 43.8311 99.9112 43.7237 100.039 43.5897L99.9665 43.5716ZM100.474 41.6244C100.638 41.78 100.77 41.9665 100.861 42.1732C100.953 42.38 101.003 42.6028 101.008 42.829C101.005 43.0375 100.962 43.2435 100.881 43.4358C100.798 43.6351 100.682 43.8189 100.537 43.9792C100.341 44.1862 100.103 44.3498 99.8397 44.4592C99.5678 44.5752 99.2749 44.6337 98.9793 44.6312H97.0684V46.7958H96.3438V41.0267H99.0608C99.291 41.0255 99.52 41.0591 99.7401 41.1263C100.048 41.2179 100.326 41.3898 100.546 41.6244H100.474ZM95.8729 41.6244H93.654V46.7505H92.9295V41.6697H90.7106V41.0267H95.8729V41.6244ZM90.611 45.0388C90.497 45.4032 90.3016 45.7369 90.0395 46.0146C89.7775 46.2923 89.4557 46.5068 89.0986 46.6418C88.2728 46.9541 87.3614 46.9541 86.5356 46.6418C86.157 46.4931 85.8189 46.2573 85.5484 45.9535C85.0658 45.3863 84.8108 44.6602 84.8329 43.9158C84.7989 43.1394 85.0538 42.3779 85.5484 41.7784C85.8162 41.4717 86.1552 41.2354 86.5356 41.0901C86.9454 40.9306 87.3819 40.8507 87.8216 40.8546C88.2651 40.8508 88.7051 40.9339 89.1167 41.0992C89.495 41.2391 89.8315 41.4728 90.0948 41.7784C90.3634 42.082 90.5559 42.4453 90.6563 42.838L89.9137 42.9467C89.8417 42.6647 89.7087 42.402 89.5242 42.1769C89.3202 41.9453 89.062 41.7679 88.7725 41.6607C88.4576 41.5395 88.1228 41.4781 87.7854 41.4795C87.4748 41.4827 87.1676 41.5442 86.8797 41.6607C86.6018 41.7748 86.3538 41.9515 86.1552 42.1769C85.8192 42.6761 85.6397 43.2642 85.6397 43.866C85.6397 44.4677 85.8192 45.0558 86.1552 45.555C86.3592 45.7866 86.6175 45.964 86.9069 46.0712C87.219 46.1913 87.5506 46.2527 87.885 46.2524C88.1955 46.2483 88.5025 46.187 88.7906 46.0712C89.0732 45.9607 89.3248 45.7836 89.5242 45.555C89.6884 45.3464 89.8141 45.1103 89.8956 44.8577L90.611 45.0388ZM81.7718 40.9814V46.7505H81.0382V42.2131L77.6782 46.7867H77.0261V41.0176H77.7597V45.5459L81.1288 41.0176L81.7718 40.9814ZM74.5265 41.6244H72.3076V46.7505H71.6193V41.6697H69.4005V41.0267H74.5627L74.5265 41.6244ZM64.7997 44.9301C65.1938 45.1833 65.6456 45.3329 66.1129 45.3648V42.041C65.6458 42.0675 65.1935 42.2141 64.7997 42.4667C64.6132 42.6133 64.4625 42.8004 64.3588 43.0137C64.2552 43.2271 64.2013 43.4612 64.2013 43.6984C64.2013 43.9356 64.2552 44.1697 64.3588 44.3831C64.4625 44.5964 64.6132 44.7835 64.7997 44.9301ZM68.1597 44.9301C68.3575 44.7941 68.5166 44.6091 68.6213 44.3932C68.7261 44.1773 68.773 43.9379 68.7575 43.6984C68.7712 43.4592 68.7236 43.2204 68.6189 43.0047C68.5143 42.7891 68.3562 42.6039 68.1597 42.4667C67.7633 42.2126 67.3076 42.066 66.8375 42.041V45.3648C67.3076 45.3324 67.7621 45.183 68.1597 44.9301ZM68.5944 41.9052C69.0288 42.2111 69.339 42.6627 69.4686 43.1779C69.5982 43.6931 69.5387 44.2377 69.3009 44.7128C69.1368 45.0316 68.8935 45.3029 68.5944 45.5007C68.0625 45.8213 67.4581 46.002 66.8375 46.0259V46.7595H66.1129V46.0259C65.4976 46.0046 64.8983 45.8236 64.3741 45.5007C64.0749 45.3002 63.8293 45.0298 63.6586 44.7128C63.5093 44.3955 63.4318 44.0491 63.4318 43.6984C63.4318 43.3477 63.5093 43.0014 63.6586 42.6841C63.8258 42.3699 64.0686 42.1022 64.365 41.9052C64.8933 41.5814 65.4941 41.3946 66.1129 41.3618V40.9905H66.8375V41.3527C67.4642 41.3933 68.0697 41.5962 68.5944 41.9414V41.9052ZM62.1824 45.0388L60.9144 41.6969L59.6556 45.0388H62.1824ZM62.4269 45.6546H59.4291L59.0035 46.7595H58.2427L60.4344 40.9905H61.4125L63.6042 46.7595H62.8435L62.4269 45.6546ZM57.8986 40.9905V46.7595H51.1695V40.9905H51.8941V46.1165H54.1673V40.9905H54.8918V46.1165H57.1288V40.9905H57.8986ZM49.1952 41.6063H46.5326L46.1612 44.4954C46.1323 45.0991 45.9028 45.6759 45.5092 46.1346H49.1861L49.1952 41.6063ZM50.4088 46.1346V47.4388H49.7114V46.7595H44.9658V47.4388H44.2865V46.1346C44.442 46.1365 44.5953 46.0983 44.7317 46.0238C44.8681 45.9492 44.983 45.8408 45.0654 45.709C45.305 45.3197 45.4478 44.8787 45.482 44.4229L45.9258 40.9905H49.8835V46.1346H50.4088ZM43.716 40.9905V46.7595H42.9914V44.6584H39.5227V46.7958H38.7982V41.0267H39.5227V44.0244H42.9914V41.0539L43.716 40.9905ZM37.0141 45.0388L35.7461 41.6969L34.4873 45.075L37.0141 45.0388ZM37.2586 45.6546H34.2518L33.8352 46.7595H33.0744L35.2661 40.9905H36.2443L38.436 46.7595H37.6752L37.2586 45.6546ZM32.7303 46.7595H32.0148V41.6154H29.4065L28.9718 44.8667C28.9329 45.3845 28.7613 45.8835 28.4737 46.3158C28.3196 46.489 28.1242 46.6205 27.9057 46.6981C27.6873 46.7757 27.4527 46.7968 27.2239 46.7595V46.1618C27.4355 46.1737 27.6453 46.1165 27.8216 45.9988C27.9734 45.8822 28.0844 45.7205 28.1386 45.5369C28.2231 45.2814 28.2778 45.017 28.3016 44.749L28.8088 40.9905H32.676L32.7303 46.7595Z" fill="white"/>
<path fill-rule="evenodd" clip-rule="evenodd" d="M145.159 3.13366L148.582 0.0634766L151.997 3.13366L148.582 6.21291L145.159 3.13366Z" fill="white"/>
</svg>
