<svg width="40" height="40" viewBox="0 0 40 40" fill="none" xmlns="http://www.w3.org/2000/svg">
<circle cx="20" cy="20" r="19" stroke="white"  stroke-width="1" stroke-opacity="0.2"/>
<path d="M27.3578 11.956C26.8592 11.5098 24.8647 10.0402 20.3771 10.014C20.3771 10.014 15.1021 9.69903 12.5303 12.0609C11.0869 13.5043 10.5883 15.5775 10.5358 18.1756C10.4833 20.7737 10.4046 25.6287 15.1022 26.9671V28.9879C15.1022 28.9879 15.0759 29.8014 15.6008 29.9589C16.2569 30.1688 16.6243 29.539 17.2541 28.8829C17.5953 28.5155 18.0676 27.9906 18.4088 27.5707C21.6105 27.8332 24.0774 27.2296 24.366 27.1246C25.0221 26.9146 28.6699 26.4423 29.2735 21.5873C29.9034 16.5485 29.0111 13.3731 27.3578 11.956ZM27.9089 21.1936C27.4103 25.2613 24.4448 25.5238 23.8937 25.6812C23.6575 25.7599 21.5055 26.2848 18.7762 26.1274C18.7762 26.1274 16.7555 28.568 16.0994 29.2241C15.9944 29.329 15.8894 29.3553 15.8107 29.3553C15.7057 29.329 15.6795 29.1978 15.6795 29.0141C15.6795 28.7517 15.7057 25.655 15.7057 25.655C11.743 24.5528 11.9792 20.4063 12.0054 18.2281C12.0579 16.0499 12.4516 14.2916 13.6588 13.0844C15.837 11.1162 20.3246 11.4049 20.3246 11.4049C24.1036 11.4311 25.9144 12.5596 26.3343 12.9532C27.6989 14.1604 28.4075 17.0209 27.9089 21.1936Z" fill="white"/>
<path d="M22.2141 18.0708C22.1616 17.0735 21.6629 16.5486 20.6919 16.4961L22.2141 18.0708Z" fill="white"/>
<path d="M22.2141 18.0708C22.1616 17.0735 21.6629 16.5486 20.6919 16.4961" stroke="#665CA7" stroke-width="0.505709" stroke-linecap="round" stroke-linejoin="round"/>
<path d="M23.5264 18.4911C23.5526 17.5726 23.264 16.7852 22.7128 16.1816C22.1354 15.5517 21.3481 15.2106 20.3508 15.1318" fill="white"/>
<path d="M23.5264 18.4911C23.5526 17.5726 23.264 16.7852 22.7128 16.1816C22.1354 15.5517 21.3481 15.2106 20.3508 15.1318" stroke="#665CA7" stroke-width="0.505709" stroke-linecap="round" stroke-linejoin="round"/>
<path d="M24.8387 19.0158C24.8387 17.4149 24.3401 16.1552 23.3953 15.2366C22.4505 14.3181 21.2695 13.8457 19.8523 13.8457" fill="white"/>
<path d="M24.8387 19.0158C24.8387 17.4149 24.3401 16.1552 23.3953 15.2366C22.4505 14.3181 21.2695 13.8457 19.8523 13.8457" stroke="#665CA7" stroke-width="0.505709" stroke-linecap="round" stroke-linejoin="round"/>
<path d="M20.7446 21.456C20.7446 21.456 21.112 21.4823 21.2957 21.2461L21.6631 20.7737C21.8468 20.5375 22.2667 20.3801 22.7128 20.6162C22.949 20.7475 23.3689 21.0099 23.6314 21.2198C23.92 21.4298 24.4974 21.9022 24.4974 21.9022C24.7861 22.1384 24.8385 22.4795 24.6548 22.8469C24.4711 23.1881 24.2087 23.503 23.8675 23.7917C23.6051 24.0279 23.3427 24.1329 23.0802 24.1853H22.9753C22.8703 24.1853 22.7391 24.1591 22.6341 24.1329C22.2405 24.0279 21.5844 23.7392 20.4559 23.1356C19.7473 22.742 19.1437 22.3221 18.6451 21.9284C18.3827 21.7185 18.094 21.4823 17.8316 21.1936L17.7266 21.0886C17.4379 20.7999 17.2017 20.5375 16.9918 20.2751C16.5981 19.7765 16.1782 19.1729 15.7846 18.4643C15.181 17.3621 14.8923 16.706 14.7874 16.2861C14.7611 16.1811 14.7349 16.0762 14.7349 15.9449V15.84C14.7611 15.5775 14.8923 15.3151 15.1285 15.0527C15.4172 14.7377 15.7321 14.4753 16.0733 14.2654C16.4407 14.0817 16.7818 14.1341 17.018 14.4228C17.018 14.4228 17.4904 15.0002 17.7004 15.2889C17.8841 15.5513 18.1465 15.9712 18.304 16.2074C18.5401 16.6273 18.3827 17.0734 18.1727 17.2571L17.7004 17.6245C17.4642 17.8082 17.4904 18.1756 17.4904 18.1756C17.4904 18.1756 18.1465 20.7737 20.7446 21.456Z" fill="white"/>
</svg>
