<svg width="40" height="40" viewBox="0 0 40 40" fill="none" xmlns="http://www.w3.org/2000/svg">
<circle cx="20" cy="20" r="19" stroke="white"  stroke-width="1" stroke-opacity="0.2"/>
<path fill-rule="evenodd" clip-rule="evenodd" d="M25.3358 14.6942C24.6428 13.9966 23.8182 13.4435 22.9099 13.0668C22.0015 12.6902 21.0275 12.4975 20.0442 12.5C15.9208 12.5 12.5642 15.8559 12.5625 19.9809C12.5625 21.2992 12.9067 22.5859 13.5608 23.7209L12.5 27.5967L16.4658 26.5559C17.5628 27.153 18.7918 27.4661 20.0408 27.4667H20.0442C24.1667 27.4667 27.5233 24.1109 27.525 19.9859C27.5278 19.0029 27.3358 18.0292 26.9601 17.1209C26.5843 16.2126 26.0323 15.3878 25.3358 14.6942ZM20.0442 26.2042H20.0417C18.9279 26.2043 17.8347 25.9047 16.8767 25.3367L16.65 25.2017L14.2967 25.8192L14.9242 23.525L14.7767 23.29C14.154 22.2987 13.8244 21.1515 13.8258 19.9809C13.8275 16.5525 16.6167 13.7634 20.0467 13.7634C20.8635 13.7615 21.6727 13.9218 22.4272 14.2347C23.1818 14.5477 23.8667 15.0072 24.4425 15.5867C25.0214 16.1634 25.4802 16.8491 25.7924 17.6042C26.1047 18.3593 26.2641 19.1688 26.2617 19.9859C26.26 23.4142 23.4708 26.2042 20.0442 26.2042ZM23.455 21.5467C23.2675 21.4525 22.3492 21.0009 22.1775 20.9384C22.0067 20.8759 21.8825 20.845 21.7575 21.0317C21.6325 21.2184 21.2742 21.6392 21.165 21.7642C21.0558 21.8892 20.9467 21.9042 20.76 21.8109C20.5733 21.7175 19.9708 21.52 19.2567 20.8834C18.7008 20.3875 18.3258 19.7759 18.2167 19.5884C18.1075 19.4009 18.205 19.3 18.2992 19.2067C18.3833 19.1234 18.4858 18.9884 18.5792 18.8792C18.6725 18.77 18.7033 18.6925 18.7658 18.5675C18.8283 18.4425 18.7975 18.3334 18.75 18.24C18.7033 18.1459 18.3292 17.2259 18.1733 16.8517C18.0225 16.4892 17.8683 16.5375 17.7533 16.5325C17.6342 16.5277 17.515 16.5254 17.3958 16.5259C17.301 16.5283 17.2078 16.5502 17.1219 16.5904C17.036 16.6305 16.9593 16.688 16.8967 16.7592C16.725 16.9467 16.2425 17.3984 16.2425 18.3184C16.2425 19.2384 16.9125 20.1275 17.0058 20.2525C17.0992 20.3775 18.3242 22.265 20.1992 23.075C20.6458 23.2675 20.9942 23.3825 21.265 23.4692C21.7125 23.6117 22.12 23.5909 22.4425 23.5434C22.8017 23.49 23.5483 23.0917 23.7042 22.655C23.86 22.2184 23.86 21.8442 23.8133 21.7659C23.7667 21.6875 23.6408 21.64 23.455 21.5467Z" fill="white"/>
</svg>
